<svg id="Layer_1" data-name="Layer 1" xmlns="http://www.w3.org/2000/svg" viewBox="0 0 981.971 942.446">
  <g>
    <g>
      <rect x="167.751" width="172.061" height="223.958" transform="translate(507.563 223.958) rotate(-180)" fill="#f4f4f4"></rect>
      <rect x="162.169" width="5.582" height="223.958" fill="#f4f4f4"></rect>
      <rect x="162.169" width="5.582" height="223.958" fill="#292a2e" opacity="0.05"></rect>
      <rect x="199.094" y="40.797" width="109.375" height="142.365" transform="translate(507.563 223.958) rotate(-180)" fill="#292a2e" opacity="0.05"></rect>
      <rect x="199.094" y="40.797" width="5.7" height="142.365" transform="translate(403.888 223.958) rotate(-180)" fill="#292a2e" opacity="0.03"></rect>
      <rect x="27.033" y="279.033" width="140.718" height="142.01" transform="translate(194.783 700.077) rotate(-180)" fill="#f4f4f4"></rect>
      <rect x="52.666" y="304.902" width="89.451" height="90.272" transform="translate(194.783 700.077) rotate(-180)" fill="#292a2e" opacity="0.05"></rect>
      <rect x="21.451" y="279.033" width="5.582" height="142.01" fill="#f4f4f4"></rect>
      <rect x="21.451" y="279.033" width="5.582" height="142.01" fill="#292a2e" opacity="0.05"></rect>
      <rect x="52.666" y="304.902" width="5.7" height="90.272" transform="translate(111.033 700.077) rotate(-180)" fill="#292a2e" opacity="0.03"></rect>
    </g>
    <g>
      <rect id="c_3_c" x="525.001" y="7.981" width="405.081" height="405.081" fill="#f4f4f4"></rect>
      <rect id="c_3_c-2" data-name="c_3_c" x="930.082" y="7.981" width="4.643" height="405.081" fill="#f4f4f4"></rect>
      <rect id="c_3_c-3" data-name="c_3_c" x="930.082" y="7.981" width="4.643" height="405.081" fill="#292a2e" opacity="0.05"></rect>
      <polygon id="c_3_c-4" data-name="c_3_c" points="831.95 287.115 831.95 181.133 745.134 181.133 745.134 242.706 610.657 242.706 610.657 351.73 553.503 351.73 553.503 413.062 610.657 413.062 621.668 413.062 910.596 413.062 910.596 287.115 831.95 287.115" fill="#292a2e" opacity="0.05"></polygon>
      <g id="c_3_wh">
        <rect id="c_3_wh-2" data-name="c_3_wh" x="756.278" y="192.64" width="63.22" height="11.507" fill="#fffffa" opacity="0.34"></rect>
        <rect id="c_3_wh-3" data-name="c_3_wh" x="756.278" y="216.486" width="63.22" height="11.507" fill="#fffffa" opacity="0.34"></rect>
        <rect id="c_3_wh-4" data-name="c_3_wh" x="756.278" y="240.331" width="63.22" height="11.507" fill="#fffffa" opacity="0.34"></rect>
      </g>
      <g id="c_3_wh-5" data-name="c_3_wh">
        <rect id="c_3_wh-6" data-name="c_3_wh" x="887.733" y="298.285" width="11.652" height="11.507" fill="#fffffa" opacity="0.34"></rect>
        <rect id="c_3_wh-7" data-name="c_3_wh" x="887.733" y="322.131" width="11.652" height="11.507" fill="#fffffa" opacity="0.34"></rect>
        <rect id="c_3_wh-8" data-name="c_3_wh" x="887.733" y="345.976" width="11.652" height="11.507" fill="#fffffa" opacity="0.34"></rect>
        <rect id="c_3_wh-9" data-name="c_3_wh" x="866.177" y="298.285" width="11.652" height="11.507" fill="#fffffa" opacity="0.34"></rect>
        <rect id="c_3_wh-10" data-name="c_3_wh" x="866.177" y="322.131" width="11.652" height="11.507" fill="#fffffa" opacity="0.34"></rect>
        <rect id="c_3_wh-11" data-name="c_3_wh" x="866.177" y="345.976" width="11.652" height="11.507" fill="#fffffa" opacity="0.34"></rect>
        <rect id="c_3_wh-12" data-name="c_3_wh" x="845.203" y="298.285" width="11.652" height="11.507" fill="#fffffa" opacity="0.34"></rect>
        <rect id="c_3_wh-13" data-name="c_3_wh" x="845.203" y="322.131" width="11.652" height="11.507" fill="#fffffa" opacity="0.34"></rect>
        <rect id="c_3_wh-14" data-name="c_3_wh" x="845.203" y="345.976" width="11.652" height="11.507" fill="#fffffa" opacity="0.34"></rect>
      </g>
      <polygon points="930.082 208.25 848.573 208.25 848.573 7.981 841.832 7.981 841.832 208.25 621.668 208.25 621.668 7.981 614.927 7.981 614.927 208.25 525.001 208.25 525.001 214.99 614.927 214.99 614.927 413.062 621.668 413.062 621.668 214.99 841.832 214.99 841.832 413.062 848.573 413.062 848.573 214.99 930.082 214.99 930.082 208.25" fill="#fff"></polygon>
      <rect id="c_3_c-5" data-name="c_3_c" x="508.864" y="412.574" width="437.355" height="13.471" fill="#f4f4f4"></rect>
      <rect id="c_3_c-6" data-name="c_3_c" x="508.864" y="412.574" width="437.355" height="13.471" fill="#292a2e" opacity="0.1"></rect>
      <rect id="c_3_c-7" data-name="c_3_c" x="946.219" y="412.574" width="6.314" height="13.471" fill="#292a2e" opacity="0.1"></rect>
      <rect id="c_3_c-8" data-name="c_3_c" x="946.219" y="412.574" width="6.314" height="13.471" fill="#292a2e" opacity="0.1"></rect>
    </g>
    <g>
      <path d="M894.912,809.348a.993.993,0,0,1-.707-.293c-1.409-1.408-3.705-27.258-9.891-104.223-2.532-31.492-4.923-61.238-6.667-79.315-.125-1.291-.625-1.441-.79-1.49-2.388-.721-9.652,5.006-13.707,10.022a1,1,0,0,1-1.556-1.258c2.682-3.316,11.422-12.009,15.838-10.68.891.268,2,1.042,2.206,3.214,1.746,18.093,4.137,47.847,6.669,79.347,3.759,46.77,8.018,99.756,9.417,103.093a1,1,0,0,1-.812,1.583Z" fill="#494949"></path>
      <ellipse cx="857.316" cy="636.534" rx="38.507" ry="28.398" transform="translate(-209.738 676.069) rotate(-38.715)" fill="#0cbc8b"></ellipse>
      <ellipse cx="857.316" cy="636.534" rx="38.507" ry="28.398" transform="translate(-209.738 676.069) rotate(-38.715)" fill="#fff" opacity="0.2"></ellipse>
      <path d="M831.922,663.727a.5.5,0,0,1-.384-.819l47.291-57.029a.5.5,0,1,1,.769.639l-47.291,57.029A.5.5,0,0,1,831.922,663.727Z" fill="#fff"></path>
      <path d="M905.227,797.123a1,1,0,0,1-.945-1.329l17.764-51.087a9.5,9.5,0,0,1,15.529-3.748l9.391,8.971a1,1,0,0,1-1.382,1.447l-9.391-8.972a7.5,7.5,0,0,0-12.258,2.959l-17.764,51.087A1,1,0,0,1,905.227,797.123Z" fill="#494949"></path>
      <ellipse cx="949.306" cy="748.016" rx="28.398" ry="38.507" transform="translate(-259.29 750.686) rotate(-38.363)" fill="#0cbc8b"></ellipse>
      <path d="M886.842,806.091a1,1,0,0,1-.972-.768L856.06,680.678a4.751,4.751,0,0,0-8.213-2l-9.189,10.62a1,1,0,0,1-1.513-1.309l9.19-10.619a6.75,6.75,0,0,1,11.67,2.848l29.811,124.644a1,1,0,0,1-.741,1.205A.983.983,0,0,1,886.842,806.091Z" fill="#494949"></path>
      <ellipse cx="847.861" cy="712.144" rx="38.507" ry="28.398" transform="translate(1.662 1426.262) rotate(-80.189)" fill="#0cbc8b"></ellipse>
      <path d="M894.914,809.348a1.043,1.043,0,0,1-.124-.007,1,1,0,0,1-.87-1.115l19.036-154.557a8.806,8.806,0,0,1,15.341-4.753l21.758,24.643a1,1,0,1,1-1.5,1.324L926.8,650.24a6.806,6.806,0,0,0-11.857,3.673L895.905,808.47A1,1,0,0,1,894.914,809.348Z" fill="#494949"></path>
      <ellipse cx="938.675" cy="668.616" rx="28.398" ry="38.507" transform="translate(-100.746 1166.373) rotate(-61.051)" fill="#0cbc8b"></ellipse>
      <ellipse cx="949.306" cy="748.016" rx="28.398" ry="38.507" transform="translate(-259.29 750.686) rotate(-38.363)" fill="#fff" opacity="0.2"></ellipse>
      <ellipse cx="847.861" cy="712.144" rx="38.507" ry="28.398" transform="translate(1.662 1426.262) rotate(-80.189)" fill="#fff" opacity="0.5"></ellipse>
      <ellipse cx="938.675" cy="668.616" rx="28.398" ry="38.507" transform="translate(-100.746 1166.373) rotate(-61.051)" fill="#fff" opacity="0.5"></ellipse>
      <polygon points="919.26 940.49 870.564 940.49 862.495 784.686 927.33 784.686 919.26 940.49" fill="#292a2e"></polygon>
      <polygon points="919.26 940.49 870.564 940.49 862.495 784.686 927.33 784.686 919.26 940.49" fill="#fff" opacity="0.3"></polygon>
      <path d="M973.206,778.71a.5.5,0,0,1-.393-.19l-47.8-60.386a.5.5,0,1,1,.784-.621L973.6,777.9a.5.5,0,0,1-.081.7A.506.506,0,0,1,973.206,778.71Z" fill="#fff"></path>
      <path d="M969.192,692.092a.494.494,0,0,1-.294-.1l-61.167-44.662a.5.5,0,1,1,.59-.808l61.166,44.663a.5.5,0,0,1-.295.9Z" fill="#fff"></path>
      <path d="M838.817,749.441a.519.519,0,0,1-.129-.017.5.5,0,0,1-.354-.612l19.472-72.953a.5.5,0,0,1,.966.257L839.3,749.07A.5.5,0,0,1,838.817,749.441Z" fill="#fff"></path>
    </g>
    <g>
      <g>
        <rect x="100.533" y="631.721" width="80.326" height="23.372" fill="#f4f4f4"></rect>
        <rect x="111.32" y="631.721" width="10.525" height="23.372" fill="#292a2e" opacity="0.05"></rect>
        <rect x="126.831" y="636.801" width="43.764" height="13.85" fill="#fff"></rect>
      </g>
      <g>
        <rect x="162.21" y="617.494" width="81.445" height="23.372" transform="translate(268.797 -28.628) rotate(23.594)" fill="#f4f4f4"></rect>
        <rect x="162.21" y="617.494" width="81.445" height="23.372" transform="translate(268.797 -28.628) rotate(23.594)" fill="#292a2e" opacity="0.05"></rect>
        <rect x="220.002" y="627.28" width="10.672" height="23.372" transform="translate(274.587 -36.778) rotate(23.594)" fill="#fff"></rect>
        <rect x="173.17" y="619.293" width="44.373" height="13.85" transform="translate(266.978 -25.843) rotate(23.594)" fill="#fff"></rect>
      </g>
      <g>
        <g>
          <rect x="224.884" y="927.797" width="20.186" height="13.481" fill="#292a2e" opacity="0.05"></rect>
          <rect x="18.504" y="927.797" width="20.186" height="13.481" fill="#292a2e" opacity="0.05"></rect>
        </g>
        <rect y="656.189" width="263.574" height="271.152" fill="#f4f4f4"></rect>
        <rect y="656.189" width="263.574" height="271.152" fill="#292a2e" opacity="0.03"></rect>
        <rect x="48.844" y="656.189" width="263.574" height="271.152" fill="#f4f4f4"></rect>
        <g>
          <rect x="273.729" y="927.797" width="20.186" height="13.481" fill="#292a2e" opacity="0.05"></rect>
          <rect x="67.348" y="927.797" width="20.186" height="13.481" fill="#292a2e" opacity="0.05"></rect>
        </g>
        <rect x="58.739" y="668.888" width="243.786" height="52.094" fill="#fff" opacity="0.7"></rect>
        <rect x="58.739" y="733.733" width="243.786" height="52.094" fill="#fff" opacity="0.7"></rect>
        <rect x="58.739" y="798.576" width="243.786" height="52.094" fill="#fff" opacity="0.7"></rect>
        <circle cx="180.632" cy="694.935" r="7.289" fill="#292a2e" opacity="0.05"></circle>
        <circle cx="180.632" cy="759.78" r="7.289" fill="#292a2e" opacity="0.05"></circle>
        <circle cx="180.632" cy="824.624" r="7.289" fill="#292a2e" opacity="0.05"></circle>
        <g>
          <rect x="58.739" y="864.882" width="243.786" height="52.094" fill="#fff" opacity="0.7"></rect>
          <circle cx="180.632" cy="890.929" r="7.289" fill="#292a2e" opacity="0.05"></circle>
        </g>
      </g>
    </g>
    <g>
      <g>
        <g>
          <path d="M636.745,724.626H119.73a26.312,26.312,0,0,1-26.312-26.312l18-583.634H680.057l-17,583.634A26.312,26.312,0,0,1,636.745,724.626Z" fill="#292a2e"></path>
          <path d="M636.745,724.626H119.73a26.312,26.312,0,0,1-26.312-26.312l18-583.634H680.057l-17,583.634A26.312,26.312,0,0,1,636.745,724.626Z" fill="#fff" opacity="0.9"></path>
          <path d="M636.745,725.626H119.73a27.344,27.344,0,0,1-27.313-27.312l18-584.634h570.64l-17,584.634A27.343,27.343,0,0,1,636.745,725.626ZM112.417,115.68l-18,582.634a25.341,25.341,0,0,0,25.313,25.312H636.745a25.341,25.341,0,0,0,25.312-25.312l17-582.634Z" fill="#292a2e"></path>
        </g>
        <path d="M655.745,56.811H138.73a27.344,27.344,0,0,0-27.313,27.312l-1,31.557h570.64l2-31.557A27.343,27.343,0,0,0,655.745,56.811Z" fill="#0c0c0c"></path>
      </g>
      <g>
        <path d="M665.745,56.811H142.73a27.344,27.344,0,0,0-27.313,27.312V115.68h577.64V84.123A27.343,27.343,0,0,0,665.745,56.811Z" fill="#292a2e"></path>
        <g>
          <path d="M116.418,114.68h575.64a0,0,0,0,1,0,0V708.314a26.312,26.312,0,0,1-26.312,26.312H142.73a26.312,26.312,0,0,1-26.312-26.312V114.68A0,0,0,0,1,116.418,114.68Z" fill="#fff"></path>
          <path d="M665.745,735.626H142.73a27.344,27.344,0,0,1-27.313-27.312V113.68h577.64V708.314A27.343,27.343,0,0,1,665.745,735.626ZM117.417,115.68V708.314a25.341,25.341,0,0,0,25.313,25.312H665.745a25.341,25.341,0,0,0,25.312-25.312V115.68Z" fill="#292a2e"></path>
        </g>
      </g>
      <g>
        <path d="M185.587,33.176a23.662,23.662,0,0,0-23.635,23.635h2a21.636,21.636,0,1,1,24.617,21.425,3.323,3.323,0,1,0,.291,1.979,23.633,23.633,0,0,0-3.273-47.039Z" fill="#f4f4f4"></path>
        <path d="M646.523,56.811a23.636,23.636,0,0,0-47.271,0h2a21.636,21.636,0,1,1,24.617,21.425,3.323,3.323,0,1,0,.291,1.979A23.668,23.668,0,0,0,646.523,56.811Z" fill="#f4f4f4"></path>
        <path d="M584.051,56.811a23.635,23.635,0,1,0-47.27,0h2A21.635,21.635,0,1,1,563.4,78.236a3.325,3.325,0,1,0,.29,1.979A23.668,23.668,0,0,0,584.051,56.811Z" fill="#f4f4f4"></path>
        <path d="M521.58,56.811a23.636,23.636,0,0,0-47.271,0h2a21.636,21.636,0,1,1,24.617,21.425,3.323,3.323,0,1,0,.291,1.979A23.668,23.668,0,0,0,521.58,56.811Z" fill="#f4f4f4"></path>
        <path d="M459.108,56.811a23.635,23.635,0,1,0-47.27,0h2a21.635,21.635,0,1,1,24.617,21.425,3.323,3.323,0,1,0,.291,1.979A23.668,23.668,0,0,0,459.108,56.811Z" fill="#f4f4f4"></path>
        <path d="M396.637,56.811a23.636,23.636,0,0,0-47.271,0h2a21.636,21.636,0,1,1,24.617,21.425,3.323,3.323,0,1,0,.291,1.979A23.668,23.668,0,0,0,396.637,56.811Z" fill="#f4f4f4"></path>
        <path d="M334.165,56.811a23.635,23.635,0,0,0-47.27,0h2a21.635,21.635,0,1,1,24.617,21.425,3.323,3.323,0,1,0,.291,1.979A23.668,23.668,0,0,0,334.165,56.811Z" fill="#f4f4f4"></path>
        <path d="M271.694,56.811a23.636,23.636,0,0,0-47.271,0h2A21.636,21.636,0,1,1,251.04,78.236a3.323,3.323,0,1,0,.291,1.979A23.668,23.668,0,0,0,271.694,56.811Z" fill="#f4f4f4"></path>
      </g>
      <g opacity="0.6">
        <path d="M185.587,33.176a23.662,23.662,0,0,0-23.635,23.635h2a21.636,21.636,0,1,1,24.617,21.425,3.323,3.323,0,1,0,.291,1.979,23.633,23.633,0,0,0-3.273-47.039Z" fill="#292a2e"></path>
        <path d="M646.523,56.811a23.636,23.636,0,0,0-47.271,0h2a21.636,21.636,0,1,1,24.617,21.425,3.323,3.323,0,1,0,.291,1.979A23.668,23.668,0,0,0,646.523,56.811Z" fill="#292a2e"></path>
        <path d="M584.051,56.811a23.635,23.635,0,1,0-47.27,0h2A21.635,21.635,0,1,1,563.4,78.236a3.325,3.325,0,1,0,.29,1.979A23.668,23.668,0,0,0,584.051,56.811Z" fill="#292a2e"></path>
        <path d="M521.58,56.811a23.636,23.636,0,0,0-47.271,0h2a21.636,21.636,0,1,1,24.617,21.425,3.323,3.323,0,1,0,.291,1.979A23.668,23.668,0,0,0,521.58,56.811Z" fill="#292a2e"></path>
        <path d="M459.108,56.811a23.635,23.635,0,1,0-47.27,0h2a21.635,21.635,0,1,1,24.617,21.425,3.323,3.323,0,1,0,.291,1.979A23.668,23.668,0,0,0,459.108,56.811Z" fill="#292a2e"></path>
        <path d="M396.637,56.811a23.636,23.636,0,0,0-47.271,0h2a21.636,21.636,0,1,1,24.617,21.425,3.323,3.323,0,1,0,.291,1.979A23.668,23.668,0,0,0,396.637,56.811Z" fill="#292a2e"></path>
        <path d="M334.165,56.811a23.635,23.635,0,0,0-47.27,0h2a21.635,21.635,0,1,1,24.617,21.425,3.323,3.323,0,1,0,.291,1.979A23.668,23.668,0,0,0,334.165,56.811Z" fill="#292a2e"></path>
        <path d="M271.694,56.811a23.636,23.636,0,0,0-47.271,0h2A21.636,21.636,0,1,1,251.04,78.236a3.323,3.323,0,1,0,.291,1.979A23.668,23.668,0,0,0,271.694,56.811Z" fill="#292a2e"></path>
      </g>
      <g opacity="0.72">
        <path d="M637.416,179.48H168.342a1,1,0,0,1,0-2H637.416a1,1,0,0,1,0,2Z" fill="#292a2e"></path>
      </g>
      <g opacity="0.72">
        <path d="M637.416,236.175H168.342a1,1,0,0,1,0-2H637.416a1,1,0,0,1,0,2Z" fill="#292a2e"></path>
      </g>
      <g opacity="0.72">
        <path d="M372.744,292.871h-204.4a1,1,0,1,1,0-2h204.4a1,1,0,0,1,0,2Z" fill="#292a2e"></path>
      </g>
    </g>
    <g>
      <path d="M860.851,475.024a27.454,27.454,0,0,0,25.755-36.951c-1.554-4.213-37.974-100.656-44.907-118.525l-51.339,20.8c3.9,10.048,18.023,48.132,29.37,78.811l-18.851-2.049L794.945,471.7l62.935,3.167A27.48,27.48,0,0,0,860.851,475.024Z" fill="#367cff"></path>
      <g>
        <polygon points="409.376 339.501 428.352 271.663 875.455 391.096 856.479 458.934 409.376 339.501" fill="#367cff"></polygon>
        <polygon points="409.376 339.501 428.352 271.663 875.455 391.096 856.479 458.934 409.376 339.501" fill="#fff" opacity="0.5"></polygon>
        <rect x="855.282" y="406.401" width="70.442" height="50.956" transform="translate(1546.301 -309.367) rotate(105.627)" fill="#262626"></rect>
        <path d="M409.376,339.5S396.5,325.069,385,312.1c-9.118-10.287-17.366-19.655-17.619-20.168s12.135-4.708,25.819-9.134c16.625-5.382,35.155-11.133,35.155-11.133Z" fill="#367cff"></path>
        <path d="M409.376,339.5S396.5,325.069,385,312.1c-9.118-10.287-17.366-19.655-17.619-20.168s12.135-4.708,25.819-9.134c16.625-5.382,35.155-11.133,35.155-11.133Z" fill="#fff" opacity="0.9"></path>
        <path d="M385,312.1c-9.118-10.287-17.366-19.655-17.619-20.168s12.135-4.708,25.819-9.134Z" fill="#262626"></path>
        <polygon points="415.414 318.414 862.636 436.582 861.781 439.68 414.558 321.513 415.414 318.414" fill="#fff"></polygon>
        <polygon points="422.827 291.871 870.05 410.038 869.194 413.136 421.972 294.969 422.827 291.871" fill="#fff"></polygon>
      </g>
      <g>
        <g>
          <g>
            <path d="M802.573,898.2s-4.515,23.4-26.428,24.709-17.161,18.761-17.161,18.761h83.739V899.835Z" fill="#367cff"></path>
            <path d="M828.4,471.273s-.263-7.036-.207,8.924c.207,59.529,1.24,127.525,3.764,167.314,4.057,63.964,14.459,265.629,14.459,265.629l-55.025-.462L738.06,468.854Z" fill="#262626"></path>
            <path d="M766.262,541.471s-2.28,43.2-2.7,53.342c-.978,23.455-1.318,47.739-1.318,75.272l-8.673-72.18S759.915,575.285,766.262,541.471Z" fill="#0a0a0a"></path>
            <path d="M704.612,898.2s-4.515,23.4-26.428,24.709-17.162,18.761-17.162,18.761h83.74V899.835Z" fill="#367cff"></path>
            <path d="M677.968,475.9s-4.873,203.456-4.159,213.4l20.463,222.3,54.117,1-5.274-231.343s3.72-63.816,19.139-123.073a459.308,459.308,0,0,0,14.168-92.938h0Z" fill="#262626"></path>
            <path d="M829,471.267l.18.01S829.05,467.807,829,471.267Z" fill="#333"></path>
            <path d="M670.222,362.964c1.135,13.332,6.656,96.51,7.746,112.931H828.341c.849-14.811.993-78.983,4.214-107.946,3.075-27.638,12.779-42.068,8.357-50.238-7.226-13.354-26.972-21.071-40.436-22.894-8.222-1.113-20.587-1.911-20.587-1.911s-1.047,21.181-26.013,22.36c-33.986,1.6-31.716-22.36-31.885-22.36-5.5,0-35.954,3.118-42.652,9.046C661.328,317.893,667.814,334.711,670.222,362.964Z" fill="#367cff"></path>
          </g>
          <g>
            <path id="h_3_sk" d="M704.077,291.08c.168-.022,4.78,17.336,40.777,14.635,24.921-1.867,31-18.83,31.568-18.83-2.686-.571-7.05-1.164-8.243-1.8-3.924-2.108-6.783-4.675-8.221-10.183-1.126-4.308-1.7-20.891-1.7-29.211l-38.347,8.617c.534,9.385,4.275,31.143-8.836,34.994C708.894,289.938,706.544,290.524,704.077,291.08Z" fill="#E98862"></path>
            <path d="M721.239,272.759c15.117,1.193,34.537-5.19,38.225-25.359l3.329-18.2c3.688-20.169-3.915-38.457-22.9-41.93h0c-18.99-3.473-36.175,10.281-39.864,30.45l-1.473,8.057C697.136,233.517,694.266,270.631,721.239,272.759Z" fill="#E98862"></path>
            <path d="M707.222,254.241c2.713-13.634,3.957-22.731,3.813-32.328-3.822-6.7-2.817-14.4-1.948-17.724a14.729,14.729,0,0,1-8.839,2.267s6.321-25.368,27.8-32.194c3.951-1.538,14.037-3.48,27.431-1.643,11.391,1.562,39.471,10.08,43.483,41.693h0v.018c.132,1.048,2.828,30.175,8.2,44.15,7.226,18.787,17.371,24.624,17.114,46.3-.331,27.881-51.588,31.592-82.5,29.507s-48.175-12.252-48.4-32.345C693.134,279.429,701.792,281.52,707.222,254.241Z" fill="#0a0a0a"></path>
          </g>
          <rect x="776.185" y="421.414" width="108.028" height="1" transform="translate(380.145 1237.2) rotate(-88.04)" fill="#0c0c0c"></rect>
        </g>
        <g>
          <path d="M529.134,370.05l-14.859-21.259a4.105,4.105,0,0,0-6.007-.789,4.249,4.249,0,0,0-.6,5.666l3.186,4.558-16.6-9.736c-1.827-1.114-4.781-1.314-5.9.818a4.1,4.1,0,0,0,.635,5.068.262.262,0,0,0-.04.048.343.343,0,0,0-.016.045l-2.817-1.719a4.109,4.109,0,0,0-6.011,2.137,4.2,4.2,0,0,0,1.866,4.949l1.2.731a.4.4,0,0,0,.008.133,4.1,4.1,0,0,0-4.927,2,4.236,4.236,0,0,0,1.669,5.5l2.977,1.817a.355.355,0,0,0-.343.384,4.107,4.107,0,0,0-4.1,2.824,4.2,4.2,0,0,0,1.9,4.853l25.121,15.328a20.671,20.671,0,0,0,23.084-1.047h0a13.64,13.64,0,0,0,3.05-18.765Z" fill="#E98862"></path>
          <g opacity="0.2">
            <path d="M505.377,364.1a.378.378,0,0,1-.514.126l-15.774-9.279a.379.379,0,0,1,.384-.653l15.775,9.28a.378.378,0,0,1,.134.518Z" fill="#0c0c0c"></path>
          </g>
          <g opacity="0.2">
            <path d="M501.477,371.165a.378.378,0,0,1-.514.126l-17.6-10.355a.379.379,0,0,1-.134-.519.391.391,0,0,1,.518-.134l17.6,10.355a.381.381,0,0,1,.135.519Z" fill="#0c0c0c"></path>
          </g>
          <g opacity="0.2">
            <path d="M497.3,378.846a.378.378,0,0,1-.513.127l-14.043-8.26a.379.379,0,0,1,.384-.653l14.043,8.26a.379.379,0,0,1,.134.519Z" fill="#0c0c0c"></path>
          </g>
        </g>
        <path d="M673.747,308.371,611.4,401.817l-78.721-45.643-28.43,46.565L605.087,467.5A29.332,29.332,0,0,0,645.3,459.1l.374-.56,77.982-116.869Z" fill="#367cff"></path>
        <path d="M673.937,417.348a.5.5,0,0,1-.415-.778l16.442-24.478a.5.5,0,0,1,.83.557l-16.442,24.478A.5.5,0,0,1,673.937,417.348Z" fill="#0c0c0c"></path>
      </g>
    </g>
    <path d="M951.5,942.446H10.026a.773.773,0,1,1,0-1.546H951.5a.773.773,0,0,1,0,1.546Z" fill="#3f3f3f"></path>
  </g>
</svg>