<svg width="38" height="40" viewBox="0 0 38 40" fill="none" xmlns="http://www.w3.org/2000/svg">
<g clip-path="url(#clip0_8_1139)">
<path d="M11.017 31.3203C14.8495 27.5187 18.6247 23.7742 22.4274 20.0022C22.3307 20.0022 22.2675 20.0022 22.2042 20.0022C21.2232 20.0022 20.2418 20.0065 19.2608 19.9982C19.0814 19.9966 18.9561 20.0456 18.828 20.1727C15.6765 23.3065 12.5211 26.4356 9.36688 29.5667C9.31596 29.6172 9.27857 29.6816 9.21333 29.768C8.90264 29.4266 8.61462 29.1302 8.34968 28.8148C7.2195 27.4681 6.37018 25.9644 5.8208 24.2972C5.49102 23.2963 5.27978 22.2716 5.18908 21.2198C4.93687 18.2963 5.54631 15.5646 7.04168 13.037C8.47658 10.6125 10.4887 8.79845 13.0403 7.57609C14.3491 6.94893 15.7271 6.53253 17.1679 6.36241C21.123 5.89549 24.6742 6.87591 27.7811 9.36444C29.4312 10.6863 30.6843 12.3211 31.5885 14.2235C31.6494 14.3518 31.6029 14.407 31.5225 14.4871C28.9431 17.0436 26.3653 19.6019 23.7875 22.1599C20.3421 25.5784 16.8958 28.9956 13.4548 32.418C13.3366 32.5356 13.2535 32.5415 13.1194 32.4673C12.4388 32.0916 11.7545 31.7217 11.017 31.3203Z" fill="white"/>
<path d="M19.0281 33.7489C23.6395 29.1732 28.2394 24.6094 32.8663 20.0187C32.8281 23.2453 31.8288 26.1136 29.8067 28.6127C26.7301 32.4156 22.4162 33.7891 19.0281 33.7489Z" fill="white"/>
</g>
<defs>
<clipPath id="clip0_8_1139">
<rect width="38" height="40" fill="white"/>
</clipPath>
</defs>
</svg>
